<svg xmlns="http://www.w3.org/2000/svg" width="319.6" height="533.3" viewBox="0 0 319.6 533.3" fill="none">
  <defs>
    <style>
      .facet {
        animation: prism-breath ease-in-out infinite alternate;
      }
      .facet-a  { animation-duration: ${breath-a}s; }   /* cool blue */
      .facet-b  { animation-duration: ${breath-b}s; }   /* soft magenta */
      .facet-c  { animation-duration: ${breath-c}s; }   /* warm coral */
      .facet-d  { animation-duration: ${breath-d}s; }   /* electric cyan */
      .facet-e  { animation-duration: ${breath-e}s; }   /* fresh lime */
      .facet-f  { animation-duration: ${breath-f}s; }   /* golden yellow */

      @keyframes prism-breath {
        from { opacity: 0.93; }
        to   { opacity: 1.00; }
      }
    </style>
  </defs>

  <!-- Facet A – cool blue (original st0) -->
  <path class="facet facet-a" fill="${color-blue}" fill-rule="evenodd" clip-rule="evenodd" d="M159.6,402.5L319.6,302L159.6,533.3V402.5z M183.4,415.6v41.8l51.3-74L183.4,415.6z"/>

  <!-- Facet B – soft magenta (original st1) -->
  <path class="facet facet-b" fill="${color-purple}" fill-rule="evenodd" clip-rule="evenodd" d="M175.9,193.8l118.2,66.9l-11.7,20.6l-118.2-66.9L175.9,193.8z"/>

  <!-- Facet C – warm coral (original st2) -->
  <path class="facet facet-c" fill="${color-coral}" fill-rule="evenodd" clip-rule="evenodd" d="M159.6,0l159.6,274.6L159.6,375.3V0z M183.1,87.9v244.7l104.2-65.7L183.1,87.9z"/>

  <!-- Facet D – electric cyan (original st3) -->
  <path class="facet facet-d" fill="${color-cyan}" fill-rule="evenodd" clip-rule="evenodd" d="M160.1,402.5L0,302l160.1,231.3V402.5z M136.3,415.6v41.8l-51.3-74L136.3,415.6z"/>

  <!-- Facet E – fresh lime (original st4) -->
  <path class="facet facet-e" fill="${color-lime}" fill-rule="evenodd" clip-rule="evenodd" d="M138.7,196L20.5,262.9l11.7,20.6l118.2-66.9L138.7,196z"/>

  <!-- Facet F – golden yellow (original st5) -->
  <path class="facet facet-f" fill="${color-yellow}" fill-rule="evenodd" clip-rule="evenodd" d="M159.6,0L0,274.6l159.6,100.6V0z M136,87.9v244.7L31.8,266.9L136,87.9z"/>
</svg>